<svg xmlns="http://www.w3.org/2000/svg" width="24.671" height="24.671" viewBox="0 0 24.671 24.671">
  <g id="Icons" opacity="0.5">
    <g id="Outlined">
      <g id="Action" transform="translate(0 0)">
        <g id="Outlined-_-Action-_-explore" data-name="Outlined-/-Action-/-explore">
          <g id="Group_10901" data-name="Group 10901">
            <path id="Path" d="M0,0H24.671V24.671H0Z" fill="none" fill-rule="evenodd"/>
            <path id="_-Icon-Color" data-name="🔹-Icon-Color" d="M12.093,2A10.093,10.093,0,1,0,22.185,12.093,10.1,10.1,0,0,0,12.093,2Zm0,18.167a8.074,8.074,0,1,1,8.074-8.074A8.085,8.085,0,0,1,12.093,20.167ZM6.542,17.644l7.58-3.522,3.522-7.58-7.58,3.522Zm5.551-6.661a1.11,1.11,0,1,1-1.11,1.11A1.107,1.107,0,0,1,12.093,10.982Z" transform="translate(0.243 0.243)" fill="#fff" fill-rule="evenodd"/>
          </g>
        </g>
      </g>
    </g>
  </g>
</svg>
