<svg xmlns="http://www.w3.org/2000/svg" width="21" height="18.75" viewBox="0 0 21 18.75">
  <g id="layer1" opacity="0.5">
    <path id="path1278-8" d="M9.124,289.459a1.874,1.874,0,0,0-1.467.757,2.576,2.576,0,0,0-.5,1.293H.532v0h0v5.178h0v11.519H21.525V296.674l0,0v-5.159h0v0H14.9a2.57,2.57,0,0,0-.5-1.291,1.875,1.875,0,0,0-1.467-.76Zm0,1.193h3.811a.612.612,0,0,1,.493.284,1.659,1.659,0,0,1,.176.573H8.454a1.66,1.66,0,0,1,.176-.573.611.611,0,0,1,.493-.284Zm-7.375,2.055H20.31v3.148l-7.089,2.7a2,2,0,0,0-1.779-1.1H10.56A2,2,0,0,0,8.809,298.5l-7.06-2.631Zm18.561,4.428v9.885H1.746v-9.876l6.825,2.542v.632a1.983,1.983,0,0,0,1.989,1.955h.881a1.985,1.985,0,0,0,1.991-1.955v-.564Zm-9.75,1.517h.884a.721.721,0,0,1,.76.722l.012.3v.648a.735.735,0,0,1-.774.757H10.56a.735.735,0,0,1-.774-.757v-.72l.024-.261a.718.718,0,0,1,.75-.688Z" transform="translate(-0.529 -289.459)" fill="#fff"/>
  </g>
</svg>
