<svg xmlns="http://www.w3.org/2000/svg" width="17.75" height="20.25" viewBox="0 0 17.75 20.25">
  <g id="learn" transform="translate(0.75 0.75)" opacity="0.5">
    <path id="Path_10368" data-name="Path 10368" d="M4.375,20.375a2.5,2.5,0,0,1-2.5-2.5V6.442a2.5,2.5,0,0,1,.267-1.117L3.808,1.992a.625.625,0,0,1,1.117,0L6.592,5.325a2.5,2.5,0,0,1,.267,1.117V17.875a2.5,2.5,0,0,1-2.483,2.5Z" transform="translate(-1.875 -1.625)" fill="none" stroke="#fff" stroke-width="1.5"/>
    <path id="Path_10369" data-name="Path 10369" d="M1.875,6.417h5" transform="translate(-1.875 -1.625)" fill="none" stroke="#fff" stroke-linecap="round" stroke-linejoin="round" stroke-width="1.5"/>
    <path id="Path_10370" data-name="Path 10370" d="M1.875,16.417h5" transform="translate(-1.875 -1.625)" fill="none" stroke="#fff" stroke-linecap="round" stroke-linejoin="round" stroke-width="1.5"/>
    <path id="Path_10371" data-name="Path 10371" d="M16.875,1.625h-5a1.25,1.25,0,0,0-1.25,1.25v16.25a1.25,1.25,0,0,0,1.25,1.25h5a1.25,1.25,0,0,0,1.25-1.25V2.875A1.25,1.25,0,0,0,16.875,1.625Z" transform="translate(-1.875 -1.625)" fill="none" stroke="#fff" stroke-width="1.5"/>
    <path id="Path_10372" data-name="Path 10372" d="M10.625,5.375h2.917" transform="translate(-1.875 -1.625)" fill="none" stroke="#fff" stroke-linecap="round" stroke-linejoin="round" stroke-width="1.5"/>
    <path id="Path_10373" data-name="Path 10373" d="M10.625,9.125h2.917" transform="translate(-1.875 -1.625)" fill="none" stroke="#fff" stroke-linecap="round" stroke-linejoin="round" stroke-width="1.5"/>
    <path id="Path_10374" data-name="Path 10374" d="M10.625,12.875h2.917" transform="translate(-1.875 -1.625)" fill="none" stroke="#fff" stroke-linecap="round" stroke-linejoin="round" stroke-width="1.5"/>
    <path id="Path_10375" data-name="Path 10375" d="M10.625,16.625h2.917" transform="translate(-1.875 -1.625)" fill="none" stroke="#fff" stroke-linecap="round" stroke-linejoin="round" stroke-width="1.5"/>
  </g>
</svg>
