<svg xmlns="http://www.w3.org/2000/svg" width="21" height="21" viewBox="0 0 21 21">
  <path id="_124384139216297319233946" data-name="124384139216297319233946" d="M23.638,23.276H21.954V15.191a2.379,2.379,0,0,0,1.981-2.339v-.109L21.951,6.353V3.362A.362.362,0,0,0,21.589,3H5.411a.362.362,0,0,0-.362.362V6.353L3.08,12.743v.109A2.379,2.379,0,0,0,5.06,15.191v8.085h-1.7a.362.362,0,0,0,0,.724H23.638a.362.362,0,0,0,0-.724Zm-2.408,0H16.292V21.549H21.23ZM5.77,16.759h4.939v4.066H5.77Zm0-.724v-.829a2.371,2.371,0,0,0,1.684-1.086,2.379,2.379,0,0,0,4.03,0,2.382,2.382,0,0,0,4.033,0,2.379,2.379,0,0,0,4.03,0,2.371,2.371,0,0,0,1.684,1.086v.829ZM18.055,6.769l.3,1.662.749,4.066H15.85l-.362-5.721Zm1.086,6.445a1.651,1.651,0,0,1-3.222,0ZM14.8,6.769l.362,5.721H11.9l.362-5.721Zm.333,6.445a1.651,1.651,0,0,1-3.222,0Zm-3.983-.724H7.888l.753-4.059.3-1.655H11.48Zm-.065.724a1.651,1.651,0,0,1-3.222,0Zm5.21,3.545h4.935v4.066H16.292ZM21.6,14.5h-.04a1.647,1.647,0,0,1-1.6-1.289h3.215A1.647,1.647,0,0,1,21.6,14.5ZM19.847,12.49,18.79,6.769h2.534l1.76,5.721ZM5.773,3.724H21.227V6.045H5.773Zm-.1,3.045H8.21L7.153,12.49H3.916ZM3.833,13.214H7.048a1.647,1.647,0,0,1-1.6,1.289H5.4a1.647,1.647,0,0,1-1.571-1.289ZM5.77,21.542h4.939v1.734H5.77Zm5.663,1.734V16.759h4.135v6.517Z" transform="translate(-3 -3)" fill="#fff" opacity="0.5"/>
</svg>
