<svg xmlns="http://www.w3.org/2000/svg" width="15.053" height="22" viewBox="0 0 15.053 22">
  <g id="pen-tip" opacity="0.5">
    <path id="Path_10376" data-name="Path 10376" d="M5.952,1.781,7.163,4.852,4.908,8.4a2.818,2.818,0,0,0-.094,2.307s5.2,10.352,5.906,11.056c.7-.7,5.837-11.056,5.837-11.056A2.818,2.818,0,0,0,16.464,8.4L14.209,4.852l1.28-3.072A.7.7,0,0,0,14.948.625H6.493a.7.7,0,0,0-.541,1.156Z" transform="translate(-3.16 0.08)" fill="rgba(0,0,0,0.15)" fill-rule="evenodd"/>
    <path id="Path_10377" data-name="Path 10377" d="M6.584,1.691l.76,1.9a.564.564,0,0,0,.523.354h5.966a.564.564,0,0,0,.523-.354l.76-1.9Zm-.81,2.528a2.257,2.257,0,0,0,.185.363L3.645,8.438a2.255,2.255,0,0,0-.014,2.3L9.876,21.441a1.127,1.127,0,0,0,1.948,0l6.245-10.706a2.255,2.255,0,0,0-.014-2.3L15.741,4.582a2.258,2.258,0,0,0,.185-.363L17,1.546A1.127,1.127,0,0,0,15.949,0H5.751A1.127,1.127,0,0,0,4.7,1.546ZM7.867,5.637H14.4l2.2,3.672a.564.564,0,0,1,0,.574L10.85,19.754,5.092,9.882a.564.564,0,0,1,0-.574L7.3,5.637ZM9.256,8.721a2.255,2.255,0,1,1,2.44,3.684v3.1A.845.845,0,1,1,10,15.5v-3.1a2.255,2.255,0,0,1-.749-3.684Zm1.993,1.993a.564.564,0,1,1,.165-.4A.564.564,0,0,1,11.249,10.713Z" transform="translate(-3.324)" fill="#fff" fill-rule="evenodd"/>
  </g>
</svg>
