<svg xmlns="http://www.w3.org/2000/svg" width="20" height="20" viewBox="0 0 20 20">
  <path id="work" d="M.75,2.5A1.75,1.75,0,0,1,2.5.75h6A1.75,1.75,0,0,1,10.25,2.5v6A1.75,1.75,0,0,1,8.5,10.25h-6A1.75,1.75,0,0,1,.75,8.5Zm13,0A1.75,1.75,0,0,1,15.5.75h2A1.75,1.75,0,0,1,19.25,2.5v6a1.75,1.75,0,0,1-1.75,1.75h-2A1.75,1.75,0,0,1,13.75,8.5Zm-4,13a1.75,1.75,0,0,1,1.75-1.75h6a1.75,1.75,0,0,1,1.75,1.75v2a1.75,1.75,0,0,1-1.75,1.75h-6A1.75,1.75,0,0,1,9.75,17.5Zm-9,0A1.75,1.75,0,0,1,2.5,13.75h2A1.75,1.75,0,0,1,6.25,15.5v2A1.75,1.75,0,0,1,4.5,19.25h-2A1.75,1.75,0,0,1,.75,17.5Z" fill="rgba(0,0,0,0.2)" stroke="#fff" stroke-width="1.5" opacity="0.5"/>
</svg>
