<svg xmlns="http://www.w3.org/2000/svg" width="20.04" height="21.506" viewBox="0 0 20.04 21.506">
  <g id="bell" transform="translate(-2.985 -2)">
    <path id="Path_10382" data-name="Path 10382" d="M21.857,17.238l-.825-1.2a11.4,11.4,0,0,1-2.176-6.7,5.6,5.6,0,0,0-4.2-5.286,1.817,1.817,0,0,0-3.3,0,5.6,5.6,0,0,0-4.2,5.286,11.4,11.4,0,0,1-2.176,6.7l-.825,1.2a.812.812,0,0,0,.75,1.269H21.106A.812.812,0,0,0,21.857,17.238Z" transform="translate(0)" fill="none" stroke="#000" stroke-linecap="round" stroke-linejoin="round" stroke-miterlimit="10" stroke-width="2"/>
    <path id="Path_10383" data-name="Path 10383" d="M20,25a4,4,0,0,1-8,0" transform="translate(-2.996 -6.494)" fill="none" stroke="#000" stroke-linecap="round" stroke-linejoin="round" stroke-miterlimit="10" stroke-width="2"/>
  </g>
</svg>
