<svg xmlns="http://www.w3.org/2000/svg" width="29.529" height="24" viewBox="0 0 29.529 24">
  <path id="twitter" d="M29.471,5.1A12.3,12.3,0,0,1,26,6.058a6.1,6.1,0,0,0,2.661-3.35A12.5,12.5,0,0,1,24.81,4.164,6.051,6.051,0,0,0,14.338,8.3a6.194,6.194,0,0,0,.156,1.383A17.144,17.144,0,0,1,2.018,3.372,5.933,5.933,0,0,0,1.2,6.417,6.054,6.054,0,0,0,3.89,11.456,6.034,6.034,0,0,1,1.149,10.7v.075A6.057,6.057,0,0,0,6,16.712a6.109,6.109,0,0,1-2.721.1,6.074,6.074,0,0,0,5.664,4.2,12.141,12.141,0,0,1-7.507,2.59A12.849,12.849,0,0,1,0,23.528a17.219,17.219,0,0,0,9.3,2.718c11.139,0,17.223-9.223,17.223-17.207,0-.257,0-.517-.018-.775a12.224,12.224,0,0,0,3.027-3.135L29.471,5.1Z" transform="translate(0 -2.246)" fill="#fff"/>
</svg>
